<?xml version="1.0" encoding="UTF-8" standalone="no"?>
<!DOCTYPE svg PUBLIC "-//W3C//DTD SVG 1.1//EN"
 "http://www.w3.org/Graphics/SVG/1.1/DTD/svg11.dtd">
<!-- Generated by graphviz version 2.40.1 (20161225.0304)
 -->
<!-- Title: dot Pages: 1 -->
<svg width="284pt" height="127pt"
 viewBox="0.00 0.00 283.78 127.20" xmlns="http://www.w3.org/2000/svg" xmlns:xlink="http://www.w3.org/1999/xlink">
<g id="graph0" class="graph" transform="scale(1 1) rotate(0) translate(4 123.2)">
<title>dot</title>
<polygon fill="#ffffff" stroke="transparent" points="-4,4 -4,-123.2 279.784,-123.2 279.784,4 -4,4"/>
<!-- Controlling_Station -->
<g id="node1" class="node">
<title>Controlling_Station</title>
<polygon fill="#ffffff" stroke="#000000" points="179.2827,-119.0019 96.5013,-119.0019 96.5013,-77.7981 179.2827,-77.7981 179.2827,-119.0019"/>
<text text-anchor="middle" x="137.892" y="-102.6" font-family="Helvetica,sans-Serif" font-size="14.00" fill="#000000">Controlling</text>
<text text-anchor="middle" x="137.892" y="-85.8" font-family="Helvetica,sans-Serif" font-size="14.00" fill="#000000">Station</text>
</g>
<!-- Controlled_Station1 -->
<g id="node2" class="node">
<title>Controlled_Station1</title>
<polygon fill="#ffffff" stroke="#000000" points="79.6763,-41.4019 .1077,-41.4019 .1077,-.1981 79.6763,-.1981 79.6763,-41.4019"/>
<text text-anchor="middle" x="39.892" y="-25" font-family="Helvetica,sans-Serif" font-size="14.00" fill="#000000">Controlled</text>
<text text-anchor="middle" x="39.892" y="-8.2" font-family="Helvetica,sans-Serif" font-size="14.00" fill="#000000">Station</text>
</g>
<!-- Controlling_Station&#45;&gt;Controlled_Station1 -->
<g id="edge1" class="edge">
<title>Controlling_Station&#45;&gt;Controlled_Station1</title>
<path fill="none" stroke="#000000" d="M111.6298,-77.6046C100.0955,-68.4714 86.4015,-57.6279 74.0849,-47.8752"/>
<polygon fill="#000000" stroke="#000000" points="66.2267,-41.6528 76.8601,-44.3327 70.1466,-44.7567 74.0665,-47.8607 74.0665,-47.8607 74.0665,-47.8607 70.1466,-44.7567 71.273,-51.3886 66.2267,-41.6528 66.2267,-41.6528"/>
</g>
<!-- Controlled_Station2 -->
<g id="node3" class="node">
<title>Controlled_Station2</title>
<polygon fill="#ffffff" stroke="#000000" points="177.6763,-41.4019 98.1077,-41.4019 98.1077,-.1981 177.6763,-.1981 177.6763,-41.4019"/>
<text text-anchor="middle" x="137.892" y="-25" font-family="Helvetica,sans-Serif" font-size="14.00" fill="#000000">Controlled</text>
<text text-anchor="middle" x="137.892" y="-8.2" font-family="Helvetica,sans-Serif" font-size="14.00" fill="#000000">Station</text>
</g>
<!-- Controlling_Station&#45;&gt;Controlled_Station2 -->
<g id="edge2" class="edge">
<title>Controlling_Station&#45;&gt;Controlled_Station2</title>
<path fill="none" stroke="#000000" d="M137.892,-77.6046C137.892,-69.6891 137.892,-60.4891 137.892,-51.8278"/>
<polygon fill="#000000" stroke="#000000" points="137.892,-41.6528 142.3921,-51.6527 137.892,-46.6528 137.8921,-51.6528 137.8921,-51.6528 137.8921,-51.6528 137.892,-46.6528 133.3921,-51.6528 137.892,-41.6528 137.892,-41.6528"/>
</g>
<!-- Controlled_Station3 -->
<g id="node4" class="node">
<title>Controlled_Station3</title>
<polygon fill="#ffffff" stroke="#000000" points="275.6763,-41.4019 196.1077,-41.4019 196.1077,-.1981 275.6763,-.1981 275.6763,-41.4019"/>
<text text-anchor="middle" x="235.892" y="-25" font-family="Helvetica,sans-Serif" font-size="14.00" fill="#000000">Controlled</text>
<text text-anchor="middle" x="235.892" y="-8.2" font-family="Helvetica,sans-Serif" font-size="14.00" fill="#000000">Station</text>
</g>
<!-- Controlling_Station&#45;&gt;Controlled_Station3 -->
<g id="edge3" class="edge">
<title>Controlling_Station&#45;&gt;Controlled_Station3</title>
<path fill="none" stroke="#000000" d="M164.1542,-77.6046C175.6885,-68.4714 189.3825,-57.6279 201.6991,-47.8752"/>
<polygon fill="#000000" stroke="#000000" points="209.5573,-41.6528 204.511,-51.3886 205.6374,-44.7567 201.7175,-47.8607 201.7175,-47.8607 201.7175,-47.8607 205.6374,-44.7567 198.9239,-44.3327 209.5573,-41.6528 209.5573,-41.6528"/>
</g>
</g>
</svg>

