<?xml version="1.0" encoding="UTF-8" standalone="no"?>
<!DOCTYPE svg PUBLIC "-//W3C//DTD SVG 1.1//EN"
 "http://www.w3.org/Graphics/SVG/1.1/DTD/svg11.dtd">
<!-- Generated by graphviz version 2.40.1 (20161225.0304)
 -->
<!-- Title: dot Pages: 1 -->
<svg width="202pt" height="297pt"
 viewBox="0.00 0.00 202.48 296.72" xmlns="http://www.w3.org/2000/svg" xmlns:xlink="http://www.w3.org/1999/xlink">
<g id="graph0" class="graph" transform="scale(1 1) rotate(0) translate(4 292.72)">
<title>dot</title>
<polygon fill="#ffffff" stroke="transparent" points="-4,4 -4,-292.72 198.4804,-292.72 198.4804,4 -4,4"/>
<!-- d1 -->
<g id="node1" class="node">
<title>d1</title>
<ellipse fill="#000000" stroke="#000000" cx="97.2402" cy="-216.36" rx=".36" ry=".36"/>
</g>
<!-- Stir 10 mins at 500 r/min -->
<g id="node5" class="node">
<title>Stir 10 mins at 500 r/min</title>
<polygon fill="none" stroke="#000000" points="175.6285,-180 18.8519,-180 18.8519,-144 175.6285,-144 175.6285,-180"/>
<text text-anchor="middle" x="97.2402" y="-157.8" font-family="Times,serif" font-size="14.00" fill="#000000">Stir 10 mins at 500 r/min</text>
</g>
<!-- d1&#45;&gt;Stir 10 mins at 500 r/min -->
<g id="edge3" class="edge">
<title>d1&#45;&gt;Stir 10 mins at 500 r/min</title>
<path fill="none" stroke="#000000" d="M97.2402,-215.7495C97.2402,-213.0703 97.2402,-201.9779 97.2402,-190.5599"/>
<polygon fill="#000000" stroke="#000000" points="100.7403,-190.2145 97.2402,-180.2145 93.7403,-190.2145 100.7403,-190.2145"/>
</g>
<!-- d2 -->
<g id="node2" class="node">
<title>d2</title>
<ellipse fill="#000000" stroke="#000000" cx="97.2402" cy="-90" rx=".36" ry=".36"/>
</g>
<!-- 40oC -->
<g id="node6" class="node">
<title>40oC</title>
<polygon fill="none" stroke="#000000" points="169.2402,-108 115.2402,-108 115.2402,-72 169.2402,-72 169.2402,-108"/>
<text text-anchor="middle" x="142.2402" y="-85.8" font-family="Times,serif" font-size="14.00" fill="#000000">40oC</text>
</g>
<!-- d2&#45;&gt;40oC -->
<g id="edge5" class="edge">
<title>d2&#45;&gt;40oC</title>
<path fill="none" stroke="#000000" d="M97.9433,-90C103.5958,-90 109.2483,-90 114.9007,-90"/>
</g>
<!-- Homogenisation at 10000 r/min -->
<g id="node7" class="node">
<title>Homogenisation at 10000 r/min</title>
<polygon fill="none" stroke="#000000" points="194.7212,-36 -.2408,-36 -.2408,0 194.7212,0 194.7212,-36"/>
<text text-anchor="middle" x="97.2402" y="-13.8" font-family="Times,serif" font-size="14.00" fill="#000000">Homogenisation at 10000 r/min</text>
</g>
<!-- d2&#45;&gt;Homogenisation at 10000 r/min -->
<g id="edge6" class="edge">
<title>d2&#45;&gt;Homogenisation at 10000 r/min</title>
<path fill="none" stroke="#000000" d="M97.2402,-89.5402C97.2402,-86.1606 97.2402,-64.775 97.2402,-46.2579"/>
<polygon fill="#000000" stroke="#000000" points="100.7403,-46.1221 97.2402,-36.1222 93.7403,-46.1222 100.7403,-46.1221"/>
</g>
<!-- GE Solution -->
<g id="node3" class="node">
<title>GE Solution</title>
<polygon fill="none" stroke="#000000" points="87.8547,-288.72 2.6257,-288.72 2.6257,-252.72 87.8547,-252.72 87.8547,-288.72"/>
<text text-anchor="middle" x="45.2402" y="-266.52" font-family="Times,serif" font-size="14.00" fill="#000000">GE Solution</text>
</g>
<!-- GE Solution&#45;&gt;d1 -->
<g id="edge1" class="edge">
<title>GE Solution&#45;&gt;d1</title>
<path fill="none" stroke="#000000" d="M62.5554,-252.6189C76.2641,-238.2881 93.612,-220.1528 96.7443,-216.8784"/>
</g>
<!-- GA Solution -->
<g id="node4" class="node">
<title>GA Solution</title>
<polygon fill="none" stroke="#000000" points="192.908,-288.72 105.5724,-288.72 105.5724,-252.72 192.908,-252.72 192.908,-288.72"/>
<text text-anchor="middle" x="149.2402" y="-266.52" font-family="Times,serif" font-size="14.00" fill="#000000">GA Solution</text>
</g>
<!-- GA Solution&#45;&gt;d1 -->
<g id="edge2" class="edge">
<title>GA Solution&#45;&gt;d1</title>
<path fill="none" stroke="#000000" d="M131.925,-252.6189C118.2163,-238.2881 100.8684,-220.1528 97.7361,-216.8784"/>
</g>
<!-- Stir 10 mins at 500 r/min&#45;&gt;d2 -->
<g id="edge4" class="edge">
<title>Stir 10 mins at 500 r/min&#45;&gt;d2</title>
<path fill="none" stroke="#000000" d="M97.2402,-143.8314C97.2402,-123.835 97.2402,-94.0191 97.2402,-90.3702"/>
</g>
</g>
</svg>

