<?xml version="1.0" encoding="UTF-8" standalone="no"?>
<!DOCTYPE svg PUBLIC "-//W3C//DTD SVG 1.1//EN"
 "http://www.w3.org/Graphics/SVG/1.1/DTD/svg11.dtd">
<!-- Generated by graphviz version 2.40.1 (20161225.0304)
 -->
<!-- Title: dot Pages: 1 -->
<svg width="572pt" height="115pt"
 viewBox="0.00 0.00 572.45 114.66" xmlns="http://www.w3.org/2000/svg" xmlns:xlink="http://www.w3.org/1999/xlink">
<g id="graph0" class="graph" transform="scale(1 1) rotate(0) translate(4 110.6576)">
<title>dot</title>
<polygon fill="#ffffff" stroke="transparent" points="-4,4 -4,-110.6576 568.4453,-110.6576 568.4453,4 -4,4"/>
<!-- pointA -->
<g id="node1" class="node">
<title>pointA</title>
<ellipse fill="#ffffff" stroke="#000000" cx="0" cy="-52.6114" rx="0" ry="0"/>
</g>
<!-- pointB -->
<g id="node2" class="node">
<title>pointB</title>
<ellipse fill="#ffffff" stroke="#000000" cx="18" cy="-52.6114" rx="0" ry="0"/>
</g>
<!-- pointA&#45;&gt;pointB -->
<!-- Controlled_StationA -->
<g id="node7" class="node">
<title>Controlled_StationA</title>
<polygon fill="#ffffff" stroke="#000000" points="463.7843,-73.2133 384.2157,-73.2133 384.2157,-32.0095 463.7843,-32.0095 463.7843,-73.2133"/>
<text text-anchor="middle" x="424" y="-56.8114" font-family="Helvetica,sans-Serif" font-size="14.00" fill="#000000">Controlled</text>
<text text-anchor="middle" x="424" y="-40.0114" font-family="Helvetica,sans-Serif" font-size="14.00" fill="#000000">Station A</text>
</g>
<!-- pointA&#45;&gt;Controlled_StationA -->
<g id="edge6" class="edge">
<title>pointA:e&#45;&gt;Controlled_StationA:w</title>
<path fill="none" stroke="#000000" d="M0,-52.6114C10.0727,-52.6114 4.746,-64.2811 9,-73.4114 12.7774,-81.5189 10.3915,-86.7091 18,-91.4114 50.8918,-111.7397 333.1082,-111.7397 366,-91.4114 373.6085,-86.7091 371.2226,-81.5189 375,-73.4114 379.254,-64.2811 373.9273,-52.6114 384,-52.6114"/>
</g>
<!-- pointC -->
<g id="node3" class="node">
<title>pointC</title>
<ellipse fill="#ffffff" stroke="#000000" cx="36" cy="-52.6114" rx="0" ry="0"/>
</g>
<!-- pointB&#45;&gt;pointC -->
<!-- Controlled_StationB -->
<g id="node8" class="node">
<title>Controlled_StationB</title>
<polygon fill="#ffffff" stroke="#000000" points="365.7843,-73.2133 286.2157,-73.2133 286.2157,-32.0095 365.7843,-32.0095 365.7843,-73.2133"/>
<text text-anchor="middle" x="326" y="-56.8114" font-family="Helvetica,sans-Serif" font-size="14.00" fill="#000000">Controlled</text>
<text text-anchor="middle" x="326" y="-40.0114" font-family="Helvetica,sans-Serif" font-size="14.00" fill="#000000">Station B</text>
</g>
<!-- pointB&#45;&gt;Controlled_StationB -->
<g id="edge7" class="edge">
<title>pointB:e&#45;&gt;Controlled_StationB:w</title>
<path fill="none" stroke="#000000" d="M18,-52.6114C28.0727,-52.6114 22.746,-64.2811 27,-73.4114 30.7774,-81.5189 28.3915,-86.7091 36,-91.4114 57.9279,-104.9636 246.0721,-104.9636 268,-91.4114 275.6085,-86.7091 273.2226,-81.5189 277,-73.4114 281.254,-64.2811 275.9273,-52.6114 286,-52.6114"/>
</g>
<!-- pointD -->
<g id="node4" class="node">
<title>pointD</title>
<ellipse fill="#ffffff" stroke="#000000" cx="54" cy="-52.6114" rx="0" ry="0"/>
</g>
<!-- pointC&#45;&gt;pointD -->
<!-- Controlled_StationC -->
<g id="node9" class="node">
<title>Controlled_StationC</title>
<polygon fill="#ffffff" stroke="#000000" points="267.7843,-73.2133 188.2157,-73.2133 188.2157,-32.0095 267.7843,-32.0095 267.7843,-73.2133"/>
<text text-anchor="middle" x="228" y="-56.8114" font-family="Helvetica,sans-Serif" font-size="14.00" fill="#000000">Controlled</text>
<text text-anchor="middle" x="228" y="-40.0114" font-family="Helvetica,sans-Serif" font-size="14.00" fill="#000000">Station C</text>
</g>
<!-- pointC&#45;&gt;Controlled_StationC -->
<g id="edge8" class="edge">
<title>pointC:e&#45;&gt;Controlled_StationC:w</title>
<path fill="none" stroke="#000000" d="M36,-52.6114C46.0727,-52.6114 40.746,-64.2811 45,-73.4114 48.7774,-81.5189 46.3915,-86.7091 54,-91.4114 75.9279,-104.9636 148.0721,-104.9636 170,-91.4114 177.6085,-86.7091 175.2226,-81.5189 179,-73.4114 183.254,-64.2811 177.9273,-52.6114 188,-52.6114"/>
</g>
<!-- pointE -->
<g id="node5" class="node">
<title>pointE</title>
<ellipse fill="#ffffff" stroke="#000000" cx="72" cy="-52.6114" rx="0" ry="0"/>
</g>
<!-- pointD&#45;&gt;pointE -->
<!-- Controlled_StationD -->
<g id="node10" class="node">
<title>Controlled_StationD</title>
<polygon fill="#ffffff" stroke="#000000" points="169.7843,-73.2133 90.2157,-73.2133 90.2157,-32.0095 169.7843,-32.0095 169.7843,-73.2133"/>
<text text-anchor="middle" x="130" y="-56.8114" font-family="Helvetica,sans-Serif" font-size="14.00" fill="#000000">Controlled</text>
<text text-anchor="middle" x="130" y="-40.0114" font-family="Helvetica,sans-Serif" font-size="14.00" fill="#000000">Station D</text>
</g>
<!-- pointD&#45;&gt;Controlled_StationD -->
<g id="edge9" class="edge">
<title>pointD:e&#45;&gt;Controlled_StationD:w</title>
<path fill="none" stroke="#000000" d="M54,-52.6114C64.0727,-52.6114 58.746,-64.2811 63,-73.4114 66.7774,-81.5189 63.0557,-91.4114 72,-91.4114 80.9443,-91.4114 77.2226,-81.5189 81,-73.4114 85.254,-64.2811 79.9273,-52.6114 90,-52.6114"/>
</g>
<!-- Controlling_Station -->
<g id="node6" class="node">
<title>Controlling_Station</title>
<polygon fill="#ffffff" stroke="#000000" points="564.3907,-73.2133 481.6093,-73.2133 481.6093,-32.0095 564.3907,-32.0095 564.3907,-73.2133"/>
<text text-anchor="middle" x="523" y="-56.8114" font-family="Helvetica,sans-Serif" font-size="14.00" fill="#000000">Controlling</text>
<text text-anchor="middle" x="523" y="-40.0114" font-family="Helvetica,sans-Serif" font-size="14.00" fill="#000000">Station</text>
</g>
<!-- Controlling_Station&#45;&gt;pointA -->
</g>
</svg>

