<?xml version="1.0" encoding="UTF-8" standalone="no"?>
<!DOCTYPE svg PUBLIC "-//W3C//DTD SVG 1.1//EN"
 "http://www.w3.org/Graphics/SVG/1.1/DTD/svg11.dtd">
<!-- Generated by graphviz version 2.40.1 (20161225.0304)
 -->
<!-- Title: dot Pages: 1 -->
<svg width="138pt" height="396pt"
 viewBox="0.00 0.00 138.34 396.00" xmlns="http://www.w3.org/2000/svg" xmlns:xlink="http://www.w3.org/1999/xlink">
<g id="graph0" class="graph" transform="scale(1 1) rotate(0) translate(4 392)">
<title>dot</title>
<polygon fill="#ffffff" stroke="transparent" points="-4,4 -4,-392 134.3373,-392 134.3373,4 -4,4"/>
<!-- pointA -->
<g id="node1" class="node">
<title>pointA</title>
<ellipse fill="#ffffff" stroke="#000000" cx="41.4453" cy="-310.4" rx="0" ry="0"/>
</g>
<!-- pointB -->
<g id="node2" class="node">
<title>pointB</title>
<ellipse fill="#ffffff" stroke="#000000" cx="32.4453" cy="-253.6" rx="0" ry="0"/>
</g>
<!-- pointA&#45;&gt;pointB -->
<!-- Controlled_StationA -->
<g id="node6" class="node">
<title>Controlled_StationA</title>
<polygon fill="#ffffff" stroke="#000000" points="130.2296,-274.2019 50.661,-274.2019 50.661,-232.9981 130.2296,-232.9981 130.2296,-274.2019"/>
<text text-anchor="middle" x="90.4453" y="-257.8" font-family="Helvetica,sans-Serif" font-size="14.00" fill="#000000">Controlled</text>
<text text-anchor="middle" x="90.4453" y="-241" font-family="Helvetica,sans-Serif" font-size="14.00" fill="#000000">Station A</text>
</g>
<!-- pointA&#45;&gt;Controlled_StationA -->
<g id="edge5" class="edge">
<title>pointA:e&#45;&gt;Controlled_StationA:w</title>
<path fill="none" stroke="#000000" d="M41.4453,-310.4C67.0047,-310.4 24.8859,-253.6 50.4453,-253.6"/>
</g>
<!-- pointC -->
<g id="node3" class="node">
<title>pointC</title>
<ellipse fill="#ffffff" stroke="#000000" cx="23.4453" cy="-176" rx="0" ry="0"/>
</g>
<!-- pointB&#45;&gt;pointC -->
<!-- Controlled_StationB -->
<g id="node7" class="node">
<title>Controlled_StationB</title>
<polygon fill="#ffffff" stroke="#000000" points="121.2296,-196.6019 41.661,-196.6019 41.661,-155.3981 121.2296,-155.3981 121.2296,-196.6019"/>
<text text-anchor="middle" x="81.4453" y="-180.2" font-family="Helvetica,sans-Serif" font-size="14.00" fill="#000000">Controlled</text>
<text text-anchor="middle" x="81.4453" y="-163.4" font-family="Helvetica,sans-Serif" font-size="14.00" fill="#000000">Station B</text>
</g>
<!-- pointB&#45;&gt;Controlled_StationB -->
<g id="edge6" class="edge">
<title>pointB:e&#45;&gt;Controlled_StationB:w</title>
<path fill="none" stroke="#000000" d="M32.4453,-253.6C49.8053,-253.6 24.0853,-176 41.4453,-176"/>
</g>
<!-- pointD -->
<g id="node4" class="node">
<title>pointD</title>
<ellipse fill="#ffffff" stroke="#000000" cx="14.4453" cy="-98.4" rx="0" ry="0"/>
</g>
<!-- pointC&#45;&gt;pointD -->
<!-- Controlled_StationC -->
<g id="node8" class="node">
<title>Controlled_StationC</title>
<polygon fill="#ffffff" stroke="#000000" points="112.2296,-119.0019 32.661,-119.0019 32.661,-77.7981 112.2296,-77.7981 112.2296,-119.0019"/>
<text text-anchor="middle" x="72.4453" y="-102.6" font-family="Helvetica,sans-Serif" font-size="14.00" fill="#000000">Controlled</text>
<text text-anchor="middle" x="72.4453" y="-85.8" font-family="Helvetica,sans-Serif" font-size="14.00" fill="#000000">Station C</text>
</g>
<!-- pointC&#45;&gt;Controlled_StationC -->
<g id="edge7" class="edge">
<title>pointC:e&#45;&gt;Controlled_StationC:w</title>
<path fill="none" stroke="#000000" d="M23.4453,-176C40.8053,-176 15.0853,-98.4 32.4453,-98.4"/>
</g>
<!-- Controlled_StationD -->
<g id="node9" class="node">
<title>Controlled_StationD</title>
<polygon fill="#ffffff" stroke="#000000" points="94.2296,-41.4019 14.661,-41.4019 14.661,-.1981 94.2296,-.1981 94.2296,-41.4019"/>
<text text-anchor="middle" x="54.4453" y="-25" font-family="Helvetica,sans-Serif" font-size="14.00" fill="#000000">Controlled</text>
<text text-anchor="middle" x="54.4453" y="-8.2" font-family="Helvetica,sans-Serif" font-size="14.00" fill="#000000">Station D</text>
</g>
<!-- pointD&#45;&gt;Controlled_StationD -->
<g id="edge8" class="edge">
<title>pointD:e&#45;&gt;Controlled_StationD:w</title>
<path fill="none" stroke="#000000" d="M14.4453,-98.4C31.6897,-98.4 -2.7991,-20.8 14.4453,-20.8"/>
</g>
<!-- Controlling_Station -->
<g id="node5" class="node">
<title>Controlling_Station</title>
<polygon fill="#ffffff" stroke="#000000" points="82.836,-387.8019 .0546,-387.8019 .0546,-346.5981 82.836,-346.5981 82.836,-387.8019"/>
<text text-anchor="middle" x="41.4453" y="-371.4" font-family="Helvetica,sans-Serif" font-size="14.00" fill="#000000">Controlling</text>
<text text-anchor="middle" x="41.4453" y="-354.6" font-family="Helvetica,sans-Serif" font-size="14.00" fill="#000000">Station</text>
</g>
<!-- Controlling_Station&#45;&gt;pointA -->
</g>
</svg>

